<?xml version="1.0" encoding="utf-8"?>
<!-- Generator: Adobe Illustrator 15.0.0, SVG Export Plug-In . SVG Version: 6.00 Build 0)  -->
<!DOCTYPE svg PUBLIC "-//W3C//DTD SVG 1.1//EN" "http://www.w3.org/Graphics/SVG/1.1/DTD/svg11.dtd">
<svg version="1.1" id="Layer_1" xmlns="http://www.w3.org/2000/svg" xmlns:xlink="http://www.w3.org/1999/xlink" x="0px" y="0px"
	 width="126.309px" height="113.75px" viewBox="0 0 126.309 113.75" enable-background="new 0 0 126.309 113.75"
	 xml:space="preserve">
<g>
	<circle fill="#FCFCFC" cx="63.155" cy="56.875" r="56.333"/>
	<path d="M119.489,56.875c0.023,7.375-1.404,14.758-4.22,21.585c-2.806,6.83-6.979,13.096-12.192,18.336
		c-5.211,5.242-11.459,9.456-18.289,12.306c-6.827,2.859-14.223,4.336-21.636,4.354c-7.4,0.023-14.822-1.411-21.677-4.239
		c-6.861-2.817-13.154-7.01-18.417-12.245c-5.265-5.233-9.498-11.51-12.361-18.369c-2.872-6.859-4.354-14.283-4.373-21.735
		c0.012-7.427,1.5-14.87,4.371-21.724c2.863-6.86,7.096-13.136,12.362-18.369c5.264-5.236,11.557-9.428,18.418-12.246
		c6.859-2.828,14.271-4.262,21.685-4.238c7.4,0.019,14.806,1.495,21.63,4.355c6.83,2.85,13.078,7.065,18.289,12.307
		c5.213,5.24,9.386,11.506,12.19,18.337C118.084,42.117,119.512,49.5,119.489,56.875z M119.489,56.875
		C119.47,49.5,118,42.134,115.154,35.338c-2.838-6.799-7.033-13.02-12.253-18.208c-5.217-5.189-11.455-9.344-18.255-12.137
		C77.848,2.191,70.502,0.77,63.153,0.793c-7.336,0.018-14.674,1.481-21.438,4.315c-6.769,2.825-12.961,7.002-18.126,12.198
		c-5.167,5.194-9.303,11.405-12.083,18.174C8.714,42.25,7.304,49.557,7.321,56.88c-0.023,7.299,1.392,14.625,4.182,21.389
		c2.78,6.77,6.917,12.98,12.083,18.175c5.165,5.196,11.358,9.373,18.126,12.198c6.767,2.835,14.096,4.298,21.445,4.316
		c7.337,0.023,14.691-1.398,21.487-4.2c6.8-2.793,13.038-6.947,18.256-12.138c5.219-5.188,9.415-11.408,12.253-18.207
		C118,71.617,119.47,64.25,119.489,56.875z"/>
</g>
<text transform="matrix(1.9447 0 0 1 26.7659 91.6514)" font-family="'Symbol'" font-size="111.9683">!</text>
</svg>
